<svg width="758" height="122" viewBox="0 0 758 122" fill="none" xmlns="http://www.w3.org/2000/svg">
<path d="M0.452995 110L12 121.547L23.547 110L12 98.453L0.452995 110ZM757.548 110L746.001 98.453L734.454 110L746.001 121.547L757.548 110ZM12 112L746.001 112L746.001 108L12 108L12 112Z" fill="white"/>
<g filter="url(#filter0_i_0_1)">
<path d="M88.4545 72V2.18182H112.864C117.727 2.18182 121.739 3.02273 124.898 4.70455C128.057 6.36363 130.409 8.60227 131.955 11.4205C133.5 14.2159 134.273 17.3182 134.273 20.7273C134.273 23.7273 133.739 26.2045 132.67 28.1591C131.625 30.1136 130.239 31.6591 128.511 32.7955C126.807 33.9318 124.955 34.7727 122.955 35.3182V36C125.091 36.1364 127.239 36.8864 129.398 38.25C131.557 39.6136 133.364 41.5682 134.818 44.1136C136.273 46.6591 137 49.7727 137 53.4545C137 56.9545 136.205 60.1023 134.614 62.8977C133.023 65.6932 130.511 67.9091 127.08 69.5455C123.648 71.1818 119.182 72 113.682 72H88.4545ZM96.9091 64.5H113.682C119.205 64.5 123.125 63.4318 125.443 61.2955C127.784 59.1364 128.955 56.5227 128.955 53.4545C128.955 51.0909 128.352 48.9091 127.148 46.9091C125.943 44.8864 124.227 43.2727 122 42.0682C119.773 40.8409 117.136 40.2273 114.091 40.2273H96.9091V64.5ZM96.9091 32.8636H112.591C115.136 32.8636 117.432 32.3636 119.477 31.3636C121.545 30.3636 123.182 28.9545 124.386 27.1364C125.614 25.3182 126.227 23.1818 126.227 20.7273C126.227 17.6591 125.159 15.0568 123.023 12.9205C120.886 10.7614 117.5 9.68182 112.864 9.68182H96.9091V32.8636ZM157.847 2.18182V72H149.801V2.18182H157.847ZM193.855 73.0909C189.128 73.0909 184.98 71.9659 181.412 69.7159C177.866 67.4659 175.094 64.3182 173.094 60.2727C171.116 56.2273 170.128 51.5 170.128 46.0909C170.128 40.6364 171.116 35.875 173.094 31.8068C175.094 27.7386 177.866 24.5795 181.412 22.3295C184.98 20.0795 189.128 18.9545 193.855 18.9545C198.582 18.9545 202.719 20.0795 206.264 22.3295C209.832 24.5795 212.605 27.7386 214.582 31.8068C216.582 35.875 217.582 40.6364 217.582 46.0909C217.582 51.5 216.582 56.2273 214.582 60.2727C212.605 64.3182 209.832 67.4659 206.264 69.7159C202.719 71.9659 198.582 73.0909 193.855 73.0909ZM193.855 65.8636C197.446 65.8636 200.401 64.9432 202.719 63.1023C205.037 61.2614 206.753 58.8409 207.866 55.8409C208.98 52.8409 209.537 49.5909 209.537 46.0909C209.537 42.5909 208.98 39.3295 207.866 36.3068C206.753 33.2841 205.037 30.8409 202.719 28.9773C200.401 27.1136 197.446 26.1818 193.855 26.1818C190.264 26.1818 187.31 27.1136 184.991 28.9773C182.673 30.8409 180.957 33.2841 179.844 36.3068C178.73 39.3295 178.173 42.5909 178.173 46.0909C178.173 49.5909 178.73 52.8409 179.844 55.8409C180.957 58.8409 182.673 61.2614 184.991 63.1023C187.31 64.9432 190.264 65.8636 193.855 65.8636ZM251 92.7273C247.114 92.7273 243.773 92.2273 240.977 91.2273C238.182 90.25 235.852 88.9545 233.989 87.3409C232.148 85.75 230.682 84.0455 229.591 82.2273L236 77.7273C236.727 78.6818 237.648 79.7727 238.761 81C239.875 82.25 241.398 83.3295 243.33 84.2386C245.284 85.1705 247.841 85.6364 251 85.6364C255.227 85.6364 258.716 84.6136 261.466 82.5682C264.216 80.5227 265.591 77.3182 265.591 72.9545V62.3182H264.909C264.318 63.2727 263.477 64.4545 262.386 65.8636C261.318 67.25 259.773 68.4886 257.75 69.5795C255.75 70.6477 253.045 71.1818 249.636 71.1818C245.409 71.1818 241.614 70.1818 238.25 68.1818C234.909 66.1818 232.261 63.2727 230.307 59.4545C228.375 55.6364 227.409 51 227.409 45.5455C227.409 40.1818 228.352 35.5114 230.239 31.5341C232.125 27.5341 234.75 24.4432 238.114 22.2614C241.477 20.0568 245.364 18.9545 249.773 18.9545C253.182 18.9545 255.886 19.5227 257.886 20.6591C259.909 21.7727 261.455 23.0455 262.523 24.4773C263.614 25.8864 264.455 27.0455 265.045 27.9545H265.864V19.6364H273.636V73.5C273.636 78 272.614 81.6591 270.568 84.4773C268.545 87.3182 265.818 89.3977 262.386 90.7159C258.977 92.0568 255.182 92.7273 251 92.7273ZM250.727 63.9545C253.955 63.9545 256.682 63.2159 258.909 61.7386C261.136 60.2614 262.83 58.1364 263.989 55.3636C265.148 52.5909 265.727 49.2727 265.727 45.4091C265.727 41.6364 265.159 38.3068 264.023 35.4205C262.886 32.5341 261.205 30.2727 258.977 28.6364C256.75 27 254 26.1818 250.727 26.1818C247.318 26.1818 244.477 27.0455 242.205 28.7727C239.955 30.5 238.261 32.8182 237.125 35.7273C236.011 38.6364 235.455 41.8636 235.455 45.4091C235.455 49.0455 236.023 52.2614 237.159 55.0568C238.318 57.8295 240.023 60.0114 242.273 61.6023C244.545 63.1705 247.364 63.9545 250.727 63.9545ZM327.227 72L311.273 19.6364H319.727L331.045 59.7273H331.591L342.773 19.6364H351.364L362.409 59.5909H362.955L374.273 19.6364H382.727L366.773 72H358.864L347.409 31.7727H346.591L335.136 72H327.227ZM393.364 72V19.6364H401.409V72H393.364ZM397.455 10.9091C395.886 10.9091 394.534 10.375 393.398 9.30682C392.284 8.23864 391.727 6.95455 391.727 5.45455C391.727 3.95455 392.284 2.67045 393.398 1.60227C394.534 0.53409 395.886 0 397.455 0C399.023 0 400.364 0.53409 401.477 1.60227C402.614 2.67045 403.182 3.95455 403.182 5.45455C403.182 6.95455 402.614 8.23864 401.477 9.30682C400.364 10.375 399.023 10.9091 397.455 10.9091ZM438.918 19.6364V26.4545H411.781V19.6364H438.918ZM419.69 7.09091H427.736V57C427.736 59.2727 428.065 60.9773 428.724 62.1136C429.406 63.2273 430.27 63.9773 431.315 64.3636C432.384 64.7273 433.509 64.9091 434.69 64.9091C435.577 64.9091 436.304 64.8636 436.872 64.7727C437.44 64.6591 437.895 64.5682 438.236 64.5L439.872 71.7273C439.327 71.9318 438.565 72.1364 437.588 72.3409C436.611 72.5682 435.372 72.6818 433.872 72.6818C431.599 72.6818 429.372 72.1932 427.19 71.2159C425.031 70.2386 423.236 68.75 421.804 66.75C420.395 64.75 419.69 62.2273 419.69 59.1818V7.09091ZM460.19 40.5V72H452.145V2.18182H460.19V27.8182H460.872C462.099 25.1136 463.94 22.9659 466.395 21.375C468.872 19.7614 472.168 18.9545 476.281 18.9545C479.849 18.9545 482.974 19.6705 485.656 21.1023C488.338 22.5114 490.418 24.6818 491.895 27.6136C493.395 30.5227 494.145 34.2273 494.145 38.7273V72H486.099V39.2727C486.099 35.1136 485.02 31.8977 482.861 29.625C480.724 27.3295 477.759 26.1818 473.963 26.1818C471.327 26.1818 468.963 26.7386 466.872 27.8523C464.804 28.9659 463.168 30.5909 461.963 32.7273C460.781 34.8636 460.19 37.4545 460.19 40.5ZM535.864 72V19.6364H543.636V27.8182H544.318C545.409 25.0227 547.17 22.8523 549.602 21.3068C552.034 19.7386 554.955 18.9545 558.364 18.9545C561.818 18.9545 564.693 19.7386 566.989 21.3068C569.307 22.8523 571.114 25.0227 572.409 27.8182H572.955C574.295 25.1136 576.307 22.9659 578.989 21.375C581.67 19.7614 584.886 18.9545 588.636 18.9545C593.318 18.9545 597.148 20.4205 600.125 23.3523C603.102 26.2614 604.591 30.7955 604.591 36.9545V72H596.545V36.9545C596.545 33.0909 595.489 30.3295 593.375 28.6705C591.261 27.0114 588.773 26.1818 585.909 26.1818C582.227 26.1818 579.375 27.2955 577.352 29.5227C575.33 31.7273 574.318 34.5227 574.318 37.9091V72H566.136V36.1364C566.136 33.1591 565.17 30.7614 563.239 28.9432C561.307 27.1023 558.818 26.1818 555.773 26.1818C553.682 26.1818 551.727 26.7386 549.909 27.8523C548.114 28.9659 546.659 30.5114 545.545 32.4886C544.455 34.4432 543.909 36.7045 543.909 39.2727V72H535.864ZM641.256 73.0909C636.21 73.0909 631.858 71.9773 628.199 69.75C624.562 67.5 621.756 64.3636 619.778 60.3409C617.824 56.2955 616.847 51.5909 616.847 46.2273C616.847 40.8636 617.824 36.1364 619.778 32.0455C621.756 27.9318 624.506 24.7273 628.028 22.4318C631.574 20.1136 635.71 18.9545 640.438 18.9545C643.165 18.9545 645.858 19.4091 648.517 20.3182C651.176 21.2273 653.597 22.7045 655.778 24.75C657.96 26.7727 659.699 29.4545 660.994 32.7955C662.29 36.1364 662.938 40.25 662.938 45.1364V48.5455H622.574V41.5909H654.756C654.756 38.6364 654.165 36 652.983 33.6818C651.824 31.3636 650.165 29.5341 648.006 28.1932C645.869 26.8523 643.347 26.1818 640.438 26.1818C637.233 26.1818 634.46 26.9773 632.119 28.5682C629.801 30.1364 628.017 32.1818 626.767 34.7045C625.517 37.2273 624.892 39.9318 624.892 42.8182V47.4545C624.892 51.4091 625.574 54.7614 626.938 57.5114C628.324 60.2386 630.244 62.3182 632.699 63.75C635.153 65.1591 638.006 65.8636 641.256 65.8636C643.369 65.8636 645.278 65.5682 646.983 64.9773C648.71 64.3636 650.199 63.4545 651.449 62.25C652.699 61.0227 653.665 59.5 654.347 57.6818L662.119 59.8636C661.301 62.5 659.926 64.8182 657.994 66.8182C656.063 68.7955 653.676 70.3409 650.835 71.4545C647.994 72.5455 644.801 73.0909 641.256 73.0909Z" fill="white"/>
</g>
<defs>
<filter id="filter0_i_0_1" x="88.4545" y="0" width="574.483" height="96.7273" filterUnits="userSpaceOnUse" color-interpolation-filters="sRGB">
<feFlood flood-opacity="0" result="BackgroundImageFix"/>
<feBlend mode="normal" in="SourceGraphic" in2="BackgroundImageFix" result="shape"/>
<feColorMatrix in="SourceAlpha" type="matrix" values="0 0 0 0 0 0 0 0 0 0 0 0 0 0 0 0 0 0 127 0" result="hardAlpha"/>
<feOffset dy="4"/>
<feGaussianBlur stdDeviation="2"/>
<feComposite in2="hardAlpha" operator="arithmetic" k2="-1" k3="1"/>
<feColorMatrix type="matrix" values="0 0 0 0 0 0 0 0 0 0 0 0 0 0 0 0 0 0 0.35 0"/>
<feBlend mode="normal" in2="shape" result="effect1_innerShadow_0_1"/>
</filter>
</defs>
</svg>
